<?xml version="1.0" encoding="UTF-8"?>
<svg width="24px" height="24px" viewBox="0 0 24 24" version="1.1" xmlns="http://www.w3.org/2000/svg" xmlns:xlink="http://www.w3.org/1999/xlink">
    <title>Transmission Icon</title>
    <g id="Icons" stroke="none" stroke-width="1" fill="none" fill-rule="evenodd">
        <g id="icon-transmission" fill="#333333" fill-rule="nonzero">
            <path d="M12,2 C6.48,2 2,6.48 2,12 C2,17.52 6.48,22 12,22 C17.52,22 22,17.52 22,12 C22,6.48 17.52,2 12,2 Z M12,20 C7.59,20 4,16.41 4,12 C4,7.59 7.59,4 12,4 C16.41,4 20,7.59 20,12 C20,16.41 16.41,20 12,20 Z" id="Shape"></path>
            <path d="M12.5,7 L11,7 L11,13 L16.2,16.2 L17,14.9 L12.5,12.2 L12.5,7 Z" id="Path"></path>
            <circle id="Oval" cx="12" cy="12" r="1.5"></circle>
        </g>
    </g>
</svg>
