<?xml version="1.0" encoding="UTF-8"?>
<svg width="24px" height="24px" viewBox="0 0 24 24" version="1.1" xmlns="http://www.w3.org/2000/svg" xmlns:xlink="http://www.w3.org/1999/xlink">
    <title>Baggage Icon</title>
    <g id="Icons" stroke="none" stroke-width="1" fill="none" fill-rule="evenodd">
        <g id="icon-baggage" fill="#333333" fill-rule="nonzero">
            <path d="M17,6 L17,5 C17,3.34 15.66,2 14,2 L10,2 C8.34,2 7,3.34 7,5 L7,6 L4,6 C2.9,6 2,6.9 2,8 L2,19 C2,20.1 2.9,21 4,21 L20,21 C21.1,21 22,20.1 22,19 L22,8 C22,6.9 21.1,6 20,6 L17,6 Z M10,5 C10,4.45 10.45,4 11,4 L13,4 C13.55,4 14,4.45 14,5 L14,6 L10,6 L10,5 Z M20,19 L4,19 L4,17 L20,17 L20,19 Z M20,14 L4,14 L4,8 L7,8 L7,10 C7,10.55 7.45,11 8,11 C8.55,11 9,10.55 9,10 L9,8 L15,8 L15,10 C15,10.55 15.45,11 16,11 C16.55,11 17,10.55 17,10 L17,8 L20,8 L20,14 Z" id="Shape"></path>
        </g>
    </g>
</svg>
